<svg height="512" viewBox="0 0 64 64" width="512" xmlns="http://www.w3.org/2000/svg"><g id="Filled_outline" data-name="Filled outline"><path d="m51 11c-1.333.292-1.667 1.25-3 3-1.355 1.779-5 4-5 4 .715 1.356 2.668 1.5 4 2 8-5 6.442-9.534 4-9z" fill="#cc331f"/><path d="m25 22h-21a20.344 20.344 0 0 1 -1-5 20.344 20.344 0 0 1 1-5h21z" fill="#cc331f"/><path d="m25 10h16v12h-16z" fill="#ef7565"/><path d="m40.262 29.117a5.943 5.943 0 0 0 -6.242-3.03 18.53 18.53 0 0 1 -.02 7.913 12.332 12.332 0 0 0 6.262-4.883z" fill="#394d5c"/><path d="m52 31s-3-1-3-3c0-3 5-1 5-5 0-3-1.939-3-3-3-7 0-10-8-10-8v10h-25v6h15c2-2 2-2 4-2 3.859 0 6 2.141 6 6a5.1 5.1 0 0 1 -1 3c1.965 1.31 7.163 5.8 8 15a3.106 3.106 0 0 0 3 3c3 0 10-3 10-3s0-14-9-19z" fill="#e1462b"/><g fill="#b22419"><path d="m27 14h10a0 0 0 0 1 0 0v4a0 0 0 0 1 0 0h-10a2 2 0 0 1 -2-2 2 2 0 0 1 2-2z" transform="matrix(-1 0 0 -1 62 32)"/><path d="m19 25h2v3h-2z"/><path d="m23 25h2v3h-2z"/><path d="m27 25h2v3h-2z"/></g><path d="m61 50s0-14-9-19a5.7 5.7 0 0 1 -2.673-1.9c-5.309.582-5.327 3.9-5.327 3.9a17.8 17.8 0 0 1 7 10s6-1 6 5a16.681 16.681 0 0 1 -.549 3.732c2.415-.818 4.549-1.732 4.549-1.732z" fill="#394d5c"/><path d="m20 16h2v2h-2z"/><circle cx="52" cy="48" r="2"/><circle cx="45" cy="25" r="2"/><path d="m52.485 30.126a.911.911 0 0 0 -.169-.074c-.489-.163-2.316-.99-2.316-2.052 0-.521.14-.684 1.513-1.086 1.387-.406 3.487-1.021 3.487-3.914 0-4-3.011-4-4-4a7.544 7.544 0 0 1 -.806-.059c3.608-3 4.244-5.742 3.522-7.423a2.527 2.527 0 0 0 -2.929-1.5c-1.406.306-2.031 1.2-2.822 2.321-.219.311-.465.661-.759 1.048a13.766 13.766 0 0 1 -2.688 2.382 15.508 15.508 0 0 1 -2.518-3.969v-1.8a1 1 0 0 0 -1-1h-16a1 1 0 0 0 -1 1v1h-20a1 1 0 0 0 -.948.684 21.062 21.062 0 0 0 -1.052 5.316 21.062 21.062 0 0 0 1.052 5.316 1 1 0 0 0 .948.684h11v5a1 1 0 0 0 1 1h12.685a6.992 6.992 0 0 0 11.759 7.391c1.648 1.1 5.743 4.709 6.56 13.7a4.083 4.083 0 0 0 3.996 3.909c3.169 0 10.1-2.955 10.394-3.081a1 1 0 0 0 .606-.919c0-.6-.108-14.648-9.515-19.874zm-3.685-15.521c.313-.413.574-.782.8-1.111.752-1.068 1-1.383 1.611-1.516a.523.523 0 0 1 .666.33c.409.953-.382 3.3-4.108 5.973a9 9 0 0 1 -1.78-1.106 15.043 15.043 0 0 0 2.811-2.57zm-22.8.395h9a1 1 0 0 1 0 2h-9zm0 4h9a3 3 0 0 0 0-6h-9v-2h14v10h-14zm-21.262 2a21.371 21.371 0 0 1 -.665-3h13.927v-2h-13.926a21.294 21.294 0 0 1 .665-3h19.261v8zm30.262 16a4.991 4.991 0 0 1 -1.768-9.661 17.172 17.172 0 0 1 -.2 6.419 1 1 0 0 0 .968 1.242 1.021 1.021 0 0 0 .245-.03 12.561 12.561 0 0 0 5.669-3.823 4.934 4.934 0 0 1 -4.914 5.853zm.206-9.979a4.977 4.977 0 0 1 3.831 2.055 12.79 12.79 0 0 1 -3.72 3.257 20.093 20.093 0 0 0 -.111-5.312zm20.394 23.94a17.9 17.9 0 0 1 -4.6 1.039 2.135 2.135 0 0 1 -2-2.091c-.9-9.895-5.53-13.936-7.528-15.239a6.993 6.993 0 0 0 -11.361-7.67h-1.111v-2h-2v2h-2v-2h-2v2h-2v-2h-2v2h-2v-4h24a1 1 0 0 0 1-1v-6.137c1.714 2.398 4.63 5.137 9 5.137 1.117 0 2 0 2 2 0 1.338-.628 1.578-2.05 2-1.175.344-2.95.863-2.95 3a2.861 2.861 0 0 0 .022.3c-4.935 1.031-5.022 4.535-5.022 4.695a1 1 0 0 0 .483.861 17 17 0 0 1 6.555 9.418 1 1 0 0 0 1.126.712 5.191 5.191 0 0 1 3.658.834 3.961 3.961 0 0 1 1.178 3.18 14.384 14.384 0 0 1 -.4 2.961zm2.187-.764a13.5 13.5 0 0 0 .213-2.197 5.849 5.849 0 0 0 -1.885-4.706 6.617 6.617 0 0 0 -4.394-1.353 19.117 19.117 0 0 0 -6.613-9.4c.249-.692 1.092-1.924 3.777-2.365a7 7 0 0 0 2.7 1.735c7.235 4.089 8.251 14.689 8.393 17.433-.597.244-1.358.544-2.193.856z"/></g></svg>